<svg xmlns="http://www.w3.org/2000/svg" xmlns:xlink="http://www.w3.org/1999/xlink" width="500" zoomAndPan="magnify" viewBox="0 0 375 374.999991" height="100000" preserveAspectRatio="xMidYMid meet" version="1.0"><defs><filter x="0%" y="0%" width="100%" height="100%" id="id1"><feColorMatrix values="0 0 0 0 1 0 0 0 0 1 0 0 0 0 1 0 0 0 1 0" color-interpolation-filters="sRGB"/></filter><g/><mask id="id2"><g filter="url(#id1)"><rect x="-37.5" width="450" fill="rgb(0%, 0%, 0%)" y="-37.499999" height="449.999989" fill-opacity="0.5176"/></g></mask><clipPath id="id3"><path d="M 0.441406 1 L 240.679688 1 L 240.679688 241 L 0.441406 241 Z M 0.441406 1 " clip-rule="nonzero"/></clipPath><clipPath id="id4"><rect x="0" width="241" y="0" height="242"/></clipPath><mask id="id5"><g filter="url(#id1)"><rect x="-37.5" width="450" fill="rgb(0%, 0%, 0%)" y="-37.499999" height="449.999989" fill-opacity="0.4863"/></g></mask><clipPath id="id6"><path d="M 0.078125 0.160156 L 247 0.160156 L 247 245.199219 L 0.078125 245.199219 Z M 0.078125 0.160156 " clip-rule="nonzero"/></clipPath><clipPath id="id7"><rect x="0" width="248" y="0" height="246"/></clipPath><mask id="id8"><g filter="url(#id1)"><rect x="-37.5" width="450" fill="rgb(0%, 0%, 0%)" y="-37.499999" height="449.999989" fill-opacity="0.9882"/></g></mask><clipPath id="id9"><path d="M 0.441406 0.0390625 L 158.359375 0.0390625 L 158.359375 157.960938 L 0.441406 157.960938 Z M 0.441406 0.0390625 " clip-rule="nonzero"/></clipPath><clipPath id="id10"><rect x="0" width="159" y="0" height="158"/></clipPath></defs><g mask="url(#id2)"><g transform="matrix(1, 0, 0, 1, 67, 55)"><g clip-path="url(#id4)"><g clip-path="url(#id3)"><path fill="rgb(23.139954%, 50.979614%, 96.469116%)" d="M 0.449219 75.226562 L 166.171875 1.214844 L 240.1875 166.9375 L 74.464844 240.949219 L 0.449219 75.226562 " fill-opacity="1" fill-rule="nonzero"/></g></g></g></g><g mask="url(#id5)"><g transform="matrix(1, 0, 0, 1, 64, 56)"><g clip-path="url(#id7)"><g clip-path="url(#id6)"><path fill="rgb(85.099792%, 27.449036%, 93.728638%)" d="M 0.136719 155.488281 L 87.152344 0.492188 L 246.722656 90.078125 L 159.707031 245.070312 L 0.136719 155.488281 " fill-opacity="1" fill-rule="nonzero"/></g></g></g></g><g mask="url(#id8)"><g transform="matrix(1, 0, 0, 1, 109, 101)"><g clip-path="url(#id10)"><g clip-path="url(#id9)"><path fill="rgb(6.669617%, 9.408569%, 15.289307%)" d="M 158.246094 3.070312 L 155.273438 157.542969 L 0.800781 154.570312 L 3.773438 0.0976562 L 158.246094 3.070312 " fill-opacity="1" fill-rule="nonzero"/></g></g></g></g><g fill="rgb(85.099792%, 27.449036%, 93.728638%)" fill-opacity="1"><g transform="translate(151.73308, 171.496467)"><g><path d="M 0.148438 -3.222656 C 0.875 -0.554688 4.265625 0.214844 6.484375 0.214844 C 9.152344 0.214844 12.882812 -0.726562 12.882812 -4.117188 C 12.882812 -7.507812 9.683594 -7.636719 6.71875 -7.914062 C 4.628906 -8.0625 2.835938 -8.234375 2.835938 -9.621094 C 2.835938 -11.113281 5.140625 -11.519531 6.292969 -11.519531 C 7.59375 -11.519531 9.511719 -11.347656 10.023438 -10.023438 C 10.195312 -9.640625 10.644531 -9.429688 11.113281 -9.429688 C 11.839844 -9.429688 12.5625 -10.023438 12.328125 -10.8125 C 11.328125 -13.160156 8.488281 -13.800781 6.269531 -13.800781 C 3.605469 -13.800781 0.277344 -12.5625 0.277344 -9.640625 C 0.277344 -6.398438 3.582031 -5.992188 6.484375 -5.757812 C 8.382812 -5.609375 10.324219 -5.4375 10.324219 -4.09375 C 10.324219 -2.410156 7.976562 -2.027344 6.484375 -2.027344 C 5.054688 -2.027344 3.09375 -2.347656 2.625 -3.734375 C 2.515625 -4.289062 2.003906 -4.566406 1.449219 -4.566406 C 0.703125 -4.566406 -0.0625 -4.050781 0.148438 -3.222656 Z M 0.148438 -3.222656 "/></g></g></g><g fill="rgb(85.099792%, 27.449036%, 93.728638%)" fill-opacity="1"><g transform="translate(166.791102, 171.496467)"><g><path d="M 11.242188 -13.585938 C 10.621094 -13.585938 10.023438 -13.203125 10.023438 -12.476562 L 10.023438 -7.613281 L 3.648438 -7.613281 L 3.648438 -12.476562 C 3.648438 -13.203125 3.007812 -13.585938 2.390625 -13.585938 C 1.769531 -13.585938 1.195312 -13.203125 1.195312 -12.476562 L 1.195312 -1.152344 C 1.195312 -0.40625 1.8125 0 2.453125 0 C 3.027344 0 3.648438 -0.363281 3.648438 -1.152344 L 3.648438 -5.546875 L 10.023438 -5.546875 L 10.023438 -1.152344 C 10.023438 -0.382812 10.621094 0 11.242188 0 C 11.839844 0 12.5 -0.382812 12.5 -1.152344 L 12.5 -12.476562 C 12.5 -13.203125 11.839844 -13.585938 11.242188 -13.585938 Z M 11.242188 -13.585938 "/></g></g></g><g fill="rgb(85.099792%, 27.449036%, 93.728638%)" fill-opacity="1"><g transform="translate(182.638274, 171.496467)"><g><path d="M 6.976562 -13.800781 C 6.421875 -13.800781 6.078125 -13.671875 5.867188 -13.203125 L -0.214844 -1.300781 C -0.597656 -0.46875 0.234375 0.214844 0.980469 0.214844 C 1.386719 0.214844 1.835938 0.0429688 2.046875 -0.40625 L 3.539062 -3.371094 L 10.410156 -3.371094 L 11.902344 -0.40625 C 12.117188 0 12.585938 0.214844 12.988281 0.214844 C 13.800781 0.214844 14.652344 -0.425781 14.097656 -1.363281 L 8.0625 -13.203125 C 7.847656 -13.628906 7.421875 -13.800781 6.976562 -13.800781 Z M 6.976562 -10.195312 L 9.363281 -5.4375 L 4.585938 -5.4375 Z M 6.976562 -10.195312 "/></g></g></g><g fill="rgb(85.099792%, 27.449036%, 93.728638%)" fill-opacity="1"><g transform="translate(198.784035, 171.496467)"><g><path d="M 12.308594 -2.089844 L 9.746094 -4.777344 C 11.921875 -5.398438 12.988281 -6.976562 12.988281 -8.980469 C 12.988281 -11.539062 11.050781 -13.585938 7.230469 -13.585938 L 2.472656 -13.585938 C 1.75 -13.585938 1.238281 -13.140625 1.238281 -12.476562 L 1.238281 -1.085938 C 1.238281 -0.382812 1.835938 0 2.472656 0 C 3.070312 0 3.710938 -0.382812 3.710938 -1.109375 L 3.710938 -4.480469 L 6.933594 -4.480469 L 10.75 -0.40625 C 11.816406 0.746094 13.609375 -0.726562 12.308594 -2.089844 Z M 3.710938 -6.546875 L 3.710938 -11.433594 L 7.253906 -11.433594 C 9.257812 -11.433594 10.472656 -10.367188 10.496094 -8.957031 C 10.535156 -7.65625 9.535156 -6.546875 7.253906 -6.546875 Z M 3.710938 -6.546875 "/></g></g></g><g fill="rgb(85.099792%, 27.449036%, 93.728638%)" fill-opacity="1"><g transform="translate(214.076671, 171.496467)"><g><path d="M 11.113281 -2.132812 L 3.667969 -2.132812 L 3.667969 -5.671875 L 10.730469 -5.671875 C 11.476562 -5.671875 11.839844 -6.1875 11.839844 -6.699219 C 11.839844 -7.230469 11.453125 -7.765625 10.730469 -7.765625 L 3.667969 -7.765625 L 3.667969 -11.496094 L 11.113281 -11.496094 C 11.839844 -11.496094 12.242188 -12.050781 12.242188 -12.5625 C 12.242188 -13.097656 11.878906 -13.585938 11.113281 -13.585938 L 2.644531 -13.585938 C 1.792969 -13.585938 1.238281 -13.011719 1.238281 -12.328125 L 1.238281 -1.28125 C 1.238281 -0.574219 1.792969 0 2.644531 0 L 11.113281 0 C 11.902344 0 12.285156 -0.511719 12.285156 -1.023438 C 12.285156 -1.558594 11.859375 -2.132812 11.113281 -2.132812 Z M 11.113281 -2.132812 "/></g></g></g><g fill="rgb(100%, 91.758728%, 98.039246%)" fill-opacity="1"><g transform="translate(173.745419, 201.493098)"><g><path d="M 10.140625 -4.652344 C 10.085938 -7.941406 7.8125 -9.378906 5.359375 -9.378906 C 3.035156 -9.378906 0.726562 -7.707031 0.726562 -4.632812 C 0.726562 -1.890625 2.582031 0.183594 5.453125 0.183594 C 6.632812 0.199219 7.851562 -0.128906 8.6875 -0.910156 C 9.394531 -1.636719 8.449219 -2.378906 7.8125 -1.800781 C 7.105469 -1.253906 6.234375 -1.035156 5.398438 -1.035156 C 3.578125 -1.035156 2.308594 -2.324219 2.070312 -3.816406 L 9.25 -3.816406 C 9.996094 -3.816406 10.140625 -4.253906 10.140625 -4.652344 Z M 2.015625 -4.925781 C 2.179688 -7.105469 3.742188 -8.140625 5.453125 -8.140625 C 6.976562 -8.140625 8.6875 -7.105469 8.867188 -4.925781 Z M 2.015625 -4.925781 "/></g></g></g><g fill="rgb(100%, 91.758728%, 98.039246%)" fill-opacity="1"><g transform="translate(184.988998, 201.493098)"><g><path d="M 0.601562 -8.175781 L 3.542969 -4.671875 L 0.507812 -1.109375 C 0.0351562 -0.601562 0.4375 0 0.945312 0 C 1.109375 0 1.308594 -0.0742188 1.472656 -0.253906 L 4.453125 -3.890625 L 7.632812 -0.234375 C 7.777344 -0.0742188 7.960938 0 8.140625 0 C 8.613281 0 9.050781 -0.5625 8.632812 -1.035156 L 5.324219 -4.671875 L 8.523438 -8.230469 C 8.867188 -8.6875 8.394531 -9.195312 7.941406 -9.195312 C 7.757812 -9.195312 7.578125 -9.121094 7.449219 -8.941406 L 4.433594 -5.488281 L 1.617188 -8.960938 C 1.472656 -9.121094 1.289062 -9.195312 1.109375 -9.195312 C 0.636719 -9.195312 0.183594 -8.722656 0.601562 -8.175781 Z M 0.601562 -8.175781 "/></g></g></g><g fill="rgb(100%, 91.758728%, 98.039246%)" fill-opacity="1"><g transform="translate(194.434333, 201.493098)"><g><path d="M 10.140625 -4.324219 C 10.214844 -7.542969 8.015625 -9.378906 5.488281 -9.378906 C 4.398438 -9.378906 3.125 -8.796875 2.507812 -7.777344 L 2.507812 -8.558594 C 2.507812 -8.960938 2.308594 -9.195312 1.890625 -9.195312 C 1.472656 -9.195312 1.21875 -8.960938 1.21875 -8.558594 L 1.21875 2.652344 C 1.21875 3.488281 2.542969 3.488281 2.542969 2.652344 L 2.542969 -1.253906 C 3.089844 -0.289062 4.269531 0.183594 5.488281 0.183594 C 8.214844 0.183594 10.066406 -1.746094 10.140625 -4.324219 Z M 5.597656 -8.125 C 7.433594 -8.125 8.851562 -6.453125 8.8125 -4.34375 C 8.742188 -2.542969 7.558594 -1.054688 5.433594 -1.054688 C 3.78125 -1.125 2.542969 -2.253906 2.542969 -3.851562 L 2.542969 -5.289062 C 2.542969 -7.070312 3.945312 -8.125 5.597656 -8.125 Z M 5.597656 -8.125 "/></g></g></g></svg>